<mxfile host="app.diagrams.net" agent="Mozilla/5.0 (Windows NT 10.0; Win64; x64) AppleWebKit/537.36 (KHTML, like Gecko) Chrome/133.0.0.0 Safari/537.36" version="26.0.16">
  <diagram name="PÃ¡gina-1" id="jeIbITXieXL87BWmK4Ac">
    <mxGraphModel>
      <root>
        <mxCell id="0" />
        <mxCell id="1" parent="0" />
        <mxCell id="2" value="serialMonitor" style="whiteSpace=wrap;strokeWidth=2;verticalAlign=top;" vertex="1" parent="1">
          <mxGeometry x="8" y="8" width="223" height="129" as="geometry" />
        </mxCell>
        <mxCell id="3" value="serialMonitor" style="whiteSpace=wrap;strokeWidth=2;" vertex="1" parent="2">
          <mxGeometry x="43" y="46" width="153" height="54" as="geometry" />
        </mxCell>
        <mxCell id="4" value="wokwi-pi-pico" style="whiteSpace=wrap;strokeWidth=2;verticalAlign=top;" vertex="1" parent="1">
          <mxGeometry x="281" y="8" width="230" height="129" as="geometry" />
        </mxCell>
        <mxCell id="5" value="wokwi-pi-pico" style="whiteSpace=wrap;strokeWidth=2;" vertex="1" parent="4">
          <mxGeometry x="43" y="46" width="160" height="54" as="geometry" />
        </mxCell>
        <mxCell id="6" value="pico:GP0" style="whiteSpace=wrap;strokeWidth=2;" vertex="1" parent="1">
          <mxGeometry x="562" y="46" width="124" height="54" as="geometry" />
        </mxCell>
        <mxCell id="7" value="$serialMonitor:RX" style="whiteSpace=wrap;strokeWidth=2;" vertex="1" parent="1">
          <mxGeometry x="531" y="187" width="186" height="54" as="geometry" />
        </mxCell>
        <mxCell id="8" value="pico:GP1" style="whiteSpace=wrap;strokeWidth=2;" vertex="1" parent="1">
          <mxGeometry x="798" y="46" width="124" height="54" as="geometry" />
        </mxCell>
        <mxCell id="9" value="$serialMonitor:TX" style="whiteSpace=wrap;strokeWidth=2;" vertex="1" parent="1">
          <mxGeometry x="767" y="187" width="186" height="54" as="geometry" />
        </mxCell>
        <mxCell id="10" value="" style="curved=1;startArrow=none;endArrow=block;exitX=0.5;exitY=0.99;entryX=0.5;entryY=0;" edge="1" parent="1" source="6" target="7">
          <mxGeometry relative="1" as="geometry">
            <Array as="points" />
          </mxGeometry>
        </mxCell>
        <mxCell id="11" value="" style="curved=1;startArrow=none;endArrow=block;exitX=0.5;exitY=0.99;entryX=0.5;entryY=0;" edge="1" parent="1" source="8" target="9">
          <mxGeometry relative="1" as="geometry">
            <Array as="points" />
          </mxGeometry>
        </mxCell>
      </root>
    </mxGraphModel>
  </diagram>
</mxfile>
